<?xml version="1.0" encoding="UTF-8" standalone="no"?>
<svg width="192px" height="64px" viewBox="0 0 192 64" version="1.1" xmlns="http://www.w3.org/2000/svg" xmlns:xlink="http://www.w3.org/1999/xlink" xmlns:sketch="http://www.bohemiancoding.com/sketch/ns">
    <!-- Generator: Sketch 3.1.1 (8761) - http://www.bohemiancoding.com/sketch -->
    <title>social</title>
    <desc>Created with Sketch.</desc>
    <defs></defs>
    <g id="Page-1" stroke="none" stroke-width="1" fill="none" fill-rule="evenodd" sketch:type="MSPage">
        <g id="A5" sketch:type="MSArtboardGroup">
            <g id="social" sketch:type="MSLayerGroup">
                <g id="github" transform="translate(160.000000, 0.000000)" sketch:type="MSShapeGroup">
                    <path d="M15.9995556,0 C7.16355556,0 0,7.16311111 0,16 C0,24.8368889 7.16355556,32 15.9995556,32 C24.8364444,32 31.9995556,24.8368889 31.9995556,16 C31.9995556,7.16311111 24.8364444,0 15.9995556,0 L15.9995556,0 Z" id="Path" fill="#B4CFDA"></path>
                    <path d="M9.697686,15.6958609 C9.66944993,15.6958609 10.0072369,16.4106517 10.0166489,16.4106517 C10.753924,17.7262431 12.1751392,18.5440432 14.5725902,18.7709775 C14.2306201,19.0261478 13.8196285,19.510344 13.7626335,20.0698364 C13.3322949,20.3433079 12.4669118,20.4337679 11.7944752,20.2251348 C10.8517044,19.9328392 10.4909102,18.0990637 9.07962993,18.3605088 C8.77426212,18.416458 8.83491737,18.6146333 9.09897686,18.7835268 C9.52931539,19.0569983 9.93403231,19.3994913 10.2461977,20.1278772 C10.4862042,20.6873696 10.9902703,21.6866125 12.585085,21.6866125 C13.217782,21.6866125 13.6611928,21.6118393 13.6611928,21.6118393 C13.6611928,21.6118393 13.6732193,23.0398521 13.6732193,23.5951613 C13.6732193,24.2357017 12.7937181,24.4160987 12.7937181,24.724081 C12.7937181,24.8459144 13.0849679,24.857418 13.3186998,24.857418 C13.7809346,24.857418 14.7425295,24.4783227 14.7425295,23.8126836 C14.7425295,23.2840417 14.7514186,21.5067384 14.7514186,21.1950959 C14.7514186,20.5153388 15.1221477,20.2999081 15.1221477,20.2999081 C15.1221477,20.2999081 15.168162,23.9287652 15.0337792,24.4160987 C14.8758664,24.9881405 14.5908913,24.9070925 14.5908913,25.1622629 C14.5908913,25.5418811 15.74857,25.2558602 16.1323713,24.4218505 C16.42885,23.7739897 16.2991732,20.2125854 16.2991732,20.2125854 L16.6155217,20.2063107 C16.6155217,20.2063107 16.6333,21.8361591 16.6223193,22.5812775 C16.6113386,23.3530632 16.5585267,24.3287761 17.0249446,24.7889194 C17.3313582,25.0916727 18.3238036,25.6224062 18.3238036,25.1371642 C18.3238036,24.8553264 17.7799979,24.6236861 17.7799979,23.8607895 L17.7799979,20.3495826 C18.2145196,20.3495826 18.1491583,21.5041239 18.1491583,21.5041239 L18.1810546,23.6495419 C18.1810546,23.6495419 18.0848428,24.4307397 19.0412088,24.757546 C19.3784729,24.8741505 20.1000612,24.9055239 20.134049,24.7104859 C20.1680369,24.5154479 19.2650057,24.2252439 19.2566395,23.6207829 C19.2514106,23.2510997 19.273372,23.0356689 19.273372,21.4314422 C19.273372,19.8272154 19.054281,19.2342581 18.2903386,18.7615655 C20.6475271,18.5236505 22.1069133,17.9505629 22.8175209,16.4158806 C22.8729473,16.4174492 23.1077249,15.6989983 23.0768744,15.6989983 C23.2363559,15.1196361 23.3226327,14.4341272 23.3393652,13.6226018 C23.3351821,11.4212345 22.2632574,10.6426512 22.0577616,10.2771511 C22.3610379,8.61070038 22.0065184,7.85250977 21.8423309,7.59211051 C21.2347327,7.37981714 19.7293321,8.13853064 18.9063031,8.6729243 C17.565613,8.28755432 14.730503,8.32467951 13.6674675,8.77227342 C11.7061068,7.3923665 10.66817,7.6036141 10.66817,7.6036141 C10.66817,7.6036141 9.99730201,8.78482278 10.4909102,10.5134974 C9.84566389,11.3218854 9.36460502,11.8939272 9.36460502,13.4097855 C9.36460502,14.2641879 9.46709147,15.0286532 9.697686,15.6958609 L9.697686,15.6958609 Z" id="Path" fill="#6A9FB5"></path>
                </g>
                <g id="weibo" transform="translate(128.000000, 0.000000)" sketch:type="MSShapeGroup">
                    <path d="M15.9995556,0 C7.16355556,0 0,7.16311111 0,16 C0,24.8368889 7.16355556,32 15.9995556,32 C24.8364444,32 31.9995556,24.8368889 31.9995556,16 C31.9995556,7.16311111 24.8364444,0 15.9995556,0 L15.9995556,0 Z" id="Path" fill="#B4CFDA"></path>
                    <path d="M13.0717861,17.823355 C11.797274,18.0833896 10.9374001,19.1683272 11.1507995,20.2462959 C11.3640027,21.3244638 12.5702584,21.9874923 13.8447704,21.7272586 C15.1188902,21.467224 15.9791564,20.3826847 15.7655609,19.3043177 C15.5525538,18.226548 14.3459059,17.5633204 13.0717861,17.823355 L13.0717861,17.823355 Z M23.4548033,13.6339311 C23.1411768,12.0790995 21.9337443,10.8535919 20.4018977,10.5350197 C20.0309986,10.4575668 19.6679451,10.700279 19.5918431,11.0771898 C19.5153488,11.4541006 19.7544424,11.8222506 20.1253415,11.9001017 C21.121336,12.1071737 21.9062848,12.9034051 22.1100734,13.9144737 C22.1867638,14.2913845 22.549425,14.5338976 22.9207164,14.4566439 C23.2918116,14.3787928 23.5307091,14.0106427 23.4548033,13.6339311 L23.4548033,13.6339311 Z M26.1825101,13.7362724 C26.180941,10.4386516 23.5473809,7.76563147 20.2983362,7.76563147 C19.9190032,7.76563147 19.6118493,8.07763315 19.6118493,8.46250823 C19.6118493,8.84758241 19.9190032,9.15938498 20.2983362,9.15938498 C22.7898916,9.15938498 24.8095362,11.2097955 24.8095362,13.7388608 C24.8095362,14.123935 25.1170824,14.4357376 25.4960232,14.4357376 C25.8753563,14.4357376 26.1825101,14.123935 26.1825101,13.7388608 L26.1825101,13.7362724 L26.1825101,13.7362724 Z M14.6944451,23.4248504 C11.530721,23.7430244 8.80026813,22.2841627 8.59451818,20.1634672 C8.38916051,18.0437672 10.7877459,16.0662301 13.9510778,15.7470605 C17.1149981,15.4272936 19.8460394,16.88735 20.0510048,19.00705 C20.255774,21.1277455 17.8587577,23.1054817 14.6944451,23.4248504 L14.6944451,23.4248504 Z M21.0218935,16.3951559 C20.7525945,16.312128 20.5680275,16.254785 20.7088554,15.8896216 C21.0138518,15.0961776 21.0458225,14.4118446 20.7149357,13.9236327 C20.0943515,13.0077375 18.3969635,13.0569171 16.4518517,13.8991425 C16.4518517,13.8981469 15.8406822,14.1753048 15.996809,13.6743499 C16.2961173,12.6800063 16.250613,11.8477364 15.785371,11.3668914 C14.7301425,10.2755824 11.9231954,11.4083058 9.5153914,13.8947621 C7.71287279,15.7576132 6.66666667,17.7321637 6.66666667,19.4393127 C6.66666667,22.7044789 10.7189011,24.8888889 14.6836575,24.8888889 C19.880756,24.8888889 23.3384928,21.5697645 23.3384928,19.0926663 C23.3384928,17.5955759 22.1183112,16.7461827 21.0218935,16.3951559 L21.0218935,16.3951559 Z" id="Path" fill="#6A9FB5"></path>
                </g>
                <g id="twitter" transform="translate(96.000000, 0.000000)" sketch:type="MSShapeGroup">
                    <path d="M16,0 C7.16355556,0 0,7.16311111 0,16 C0,24.8368889 7.16355556,32 16,32 C24.8364444,32 32,24.8368889 32,16 C32,7.16311111 24.8364444,0 16,0" id="Path" fill="#B4CFDA"></path>
                    <path d="M24.0466667,13.2431111 C24.2808889,18.4626667 20.3888889,24.2822222 13.4986667,24.2822222 C11.4031111,24.2822222 9.45244444,23.6675556 7.81022222,22.6146667 C9.77866667,22.8466667 11.744,22.3008889 13.304,21.0777778 C11.6804444,21.048 10.3097778,19.9751111 9.83777778,18.5008889 C10.4191111,18.612 10.9911111,18.5795556 11.5133333,18.4377778 C9.72844444,18.0786667 8.49688889,16.4711111 8.53688889,14.752 C9.03733333,15.0297778 9.60977778,15.1968889 10.2182222,15.2155556 C8.56533333,14.1115556 8.09733333,11.9293333 9.06977778,10.2613333 C10.8995556,12.5066667 13.6337778,13.984 16.7182222,14.1391111 C16.1773333,11.8173333 17.9382222,9.58222222 20.3333333,9.58222222 C21.4008889,9.58222222 22.3653333,10.0324444 23.0417778,10.7537778 C23.8871111,10.5875556 24.6813333,10.2786667 25.3982222,9.85333333 C25.1213333,10.72 24.5328889,11.4475556 23.7666667,11.9062222 C24.5173333,11.8168889 25.2324444,11.6173333 25.8982222,11.3222222 C25.4008889,12.0666667 24.7715556,12.72 24.0466667,13.2431111" id="Path" fill="#6A9FB5"></path>
                </g>
                <g id="linkedin" transform="translate(64.000000, 0.000000)" sketch:type="MSShapeGroup">
                    <path d="M15.9995556,0 C7.16355556,0 0,7.16311111 0,16 C0,24.8368889 7.16355556,32 15.9995556,32 C24.8364444,32 31.9995556,24.8368889 31.9995556,16 C31.9995556,7.16311111 24.8364444,0 15.9995556,0 L15.9995556,0 Z" id="Path" fill="#B4CFDA"></path>
                    <path d="M24.896,23.7351111 L21.4,23.7351111 L21.4,17.7777778 C21.4,16.1435556 20.7791111,15.2315556 19.4871111,15.2315556 C18.0813333,15.2315556 17.3466667,16.1817778 17.3466667,17.7777778 L17.3466667,23.7351111 L13.9773333,23.7351111 L13.9773333,12.3857778 L17.3466667,12.3857778 L17.3466667,13.9142222 C18.36,12.0395556 20.7666667,12.0395556 20.7666667,12.0395556 C23.1733333,12.0395556 24.896,13.5088889 24.896,16.5488889 L24.896,23.7351111 Z M9.95777778,10.8995556 C8.81066667,10.8995556 7.88044444,9.96177778 7.88044444,8.80533333 C7.88044444,7.64888889 8.81066667,6.71111111 9.95777778,6.71111111 C11.1053333,6.71111111 12.0351111,7.64888889 12.0351111,8.80533333 C12.0351111,9.96177778 11.1053333,10.8995556 9.95777778,10.8995556 L9.95777778,10.8995556 Z M11.7311111,23.7351111 L8.21822222,23.7351111 L8.21822222,12.3857778 L11.7311111,12.3857778 L11.7311111,23.7351111 Z" id="Path" fill="#6A9FB5"></path>
                </g>
                <g id="googleplus" transform="translate(32.000000, 0.000000)" sketch:type="MSShapeGroup">
                    <path d="M32.1631111,16.0817778 C32.1631111,24.9631111 24.9631111,32.1635556 16.0817778,32.1635556 C7.19955556,32.1635556 0,24.9631111 0,16.0817778 C0,7.2 7.19955556,0 16.0817778,0 C24.9631111,0 32.1631111,7.2 32.1631111,16.0817778 L32.1631111,16.0817778 Z" id="Path" fill="#B4CFDA"></path>
                    <path d="M15.9671111,12.2484444 C15.7262222,10.4164444 14.5324444,8.91333333 13.1382222,8.87111111 C11.7431111,8.83022222 10.8075556,10.232 11.0488889,12.0644444 C11.2897778,13.8964444 12.6155556,15.1755556 14.0106667,15.2182222 C15.4048889,15.2595556 16.2075556,14.0804444 15.9671111,12.2484444 L15.9671111,12.2484444 Z M25.9457778,10.6564444 L23.5577778,10.6564444 L23.5577778,8.26844444 L22.364,8.26844444 L22.364,10.6564444 L19.9764444,10.6564444 L19.9764444,11.8502222 L22.364,11.8502222 L22.364,14.2382222 L23.5577778,14.2382222 L23.5577778,11.8502222 L25.9457778,11.8502222 L25.9457778,10.6564444 Z M19.1955556,21.7257778 C19.1955556,20.2671111 18.6506667,19.3137778 17.0022222,18.0786667 C15.3297778,16.8595556 14.9213333,16.1706667 16.5173333,14.9368889 C17.4168889,14.2413333 18.0466667,13.3142222 18.0466667,12.1702222 C18.0466667,10.924 17.5368889,9.79288889 16.5782222,9.24311111 L17.9373333,9.24311111 L19.0933333,8.02977778 L13.9177778,8.02977778 C10.6866667,8.02977778 9.10222222,9.96577778 9.10222222,12.0964444 C9.10222222,14.2737778 10.5955556,15.9884444 13.5124444,15.9884444 C13.06,16.9013333 13.2413333,17.7444444 13.9813333,18.3475556 C9,18.3475556 7.93422222,20.5333333 7.93422222,22.2168889 C7.93422222,24.3986667 10.4417778,25.6955556 13.4488889,25.6955556 C17.5613333,25.6955556 19.1955556,23.5168889 19.1955556,21.7257778 L19.1955556,21.7257778 Z M17.4048889,21.9102222 C17.4048889,23.4906667 16.1217778,24.7253333 13.464,24.7253333 C11.3853333,24.7253333 9.88444444,23.4097778 9.88444444,21.8293333 C9.88444444,20.2804444 11.6457778,18.944 13.724,18.9671111 C16.0306667,18.9671111 17.4048889,20.4035556 17.4048889,21.9102222 L17.4048889,21.9102222 Z" id="Path" fill="#6A9FB5"></path>
                </g>
                <g id="facebook" sketch:type="MSShapeGroup">
                    <path d="M16,0 C7.16311111,0 0,7.16311111 0,16 C0,24.8368889 7.16311111,32 16,32 C24.8364444,32 32,24.8368889 32,16 C32,7.16311111 24.8364444,0 16,0 L16,0 Z" id="Path" fill="#B4CFDA"></path>
                    <path d="M20.7355556,9.41288889 L18.4995556,9.41288889 C17.7097778,9.41288889 17.5453333,9.73644444 17.5453333,10.5528889 L17.5453333,12.5262222 L20.7355556,12.5262222 L20.4284444,15.9902222 L17.5453333,15.9902222 L17.5453333,26.3377778 L13.4133333,26.3377778 L13.4133333,16.0337778 L11.2644444,16.0337778 L11.2644444,12.5262222 L13.4133333,12.5262222 L13.4133333,9.764 C13.4133333,7.17155556 14.8,5.81777778 17.8746667,5.81777778 L20.7355556,5.81777778 L20.7355556,9.41288889 Z" id="Path" fill="#6A9FB5"></path>
                </g>
                <g id="github-2" transform="translate(160.000000, 32.000000)" sketch:type="MSShapeGroup">
                    <path d="M15.9995556,0 C7.16355556,0 0,7.16311111 0,16 C0,24.8368889 7.16355556,32 15.9995556,32 C24.8364444,32 31.9995556,24.8368889 31.9995556,16 C31.9995556,7.16311111 24.8364444,0 15.9995556,0 L15.9995556,0 Z" id="Path" fill="#B4CFDA"></path>
                    <path d="M9.697686,15.6958609 C9.66944993,15.6958609 10.0072369,16.4106517 10.0166489,16.4106517 C10.753924,17.7262431 12.1751392,18.5440432 14.5725902,18.7709775 C14.2306201,19.0261478 13.8196285,19.510344 13.7626335,20.0698364 C13.3322949,20.3433079 12.4669118,20.4337679 11.7944752,20.2251348 C10.8517044,19.9328392 10.4909102,18.0990637 9.07962993,18.3605088 C8.77426212,18.416458 8.83491737,18.6146333 9.09897686,18.7835268 C9.52931539,19.0569983 9.93403231,19.3994913 10.2461977,20.1278772 C10.4862042,20.6873696 10.9902703,21.6866125 12.585085,21.6866125 C13.217782,21.6866125 13.6611928,21.6118393 13.6611928,21.6118393 C13.6611928,21.6118393 13.6732193,23.0398521 13.6732193,23.5951613 C13.6732193,24.2357017 12.7937181,24.4160987 12.7937181,24.724081 C12.7937181,24.8459144 13.0849679,24.857418 13.3186998,24.857418 C13.7809346,24.857418 14.7425295,24.4783227 14.7425295,23.8126836 C14.7425295,23.2840417 14.7514186,21.5067384 14.7514186,21.1950959 C14.7514186,20.5153388 15.1221477,20.2999081 15.1221477,20.2999081 C15.1221477,20.2999081 15.168162,23.9287652 15.0337792,24.4160987 C14.8758664,24.9881405 14.5908913,24.9070925 14.5908913,25.1622629 C14.5908913,25.5418811 15.74857,25.2558602 16.1323713,24.4218505 C16.42885,23.7739897 16.2991732,20.2125854 16.2991732,20.2125854 L16.6155217,20.2063107 C16.6155217,20.2063107 16.6333,21.8361591 16.6223193,22.5812775 C16.6113386,23.3530632 16.5585267,24.3287761 17.0249446,24.7889194 C17.3313582,25.0916727 18.3238036,25.6224062 18.3238036,25.1371642 C18.3238036,24.8553264 17.7799979,24.6236861 17.7799979,23.8607895 L17.7799979,20.3495826 C18.2145196,20.3495826 18.1491583,21.5041239 18.1491583,21.5041239 L18.1810546,23.6495419 C18.1810546,23.6495419 18.0848428,24.4307397 19.0412088,24.757546 C19.3784729,24.8741505 20.1000612,24.9055239 20.134049,24.7104859 C20.1680369,24.5154479 19.2650057,24.2252439 19.2566395,23.6207829 C19.2514106,23.2510997 19.273372,23.0356689 19.273372,21.4314422 C19.273372,19.8272154 19.054281,19.2342581 18.2903386,18.7615655 C20.6475271,18.5236505 22.1069133,17.9505629 22.8175209,16.4158806 C22.8729473,16.4174492 23.1077249,15.6989983 23.0768744,15.6989983 C23.2363559,15.1196361 23.3226327,14.4341272 23.3393652,13.6226018 C23.3351821,11.4212345 22.2632574,10.6426512 22.0577616,10.2771511 C22.3610379,8.61070038 22.0065184,7.85250977 21.8423309,7.59211051 C21.2347327,7.37981714 19.7293321,8.13853064 18.9063031,8.6729243 C17.565613,8.28755432 14.730503,8.32467951 13.6674675,8.77227342 C11.7061068,7.3923665 10.66817,7.6036141 10.66817,7.6036141 C10.66817,7.6036141 9.99730201,8.78482278 10.4909102,10.5134974 C9.84566389,11.3218854 9.36460502,11.8939272 9.36460502,13.4097855 C9.36460502,14.2641879 9.46709147,15.0286532 9.697686,15.6958609 L9.697686,15.6958609 Z" id="Path" fill="#FFFFFF"></path>
                </g>
                <g id="weibo-2" transform="translate(128.000000, 32.000000)" sketch:type="MSShapeGroup">
                    <path d="M15.9995556,0 C7.16355556,0 0,7.16311111 0,16 C0,24.8368889 7.16355556,32 15.9995556,32 C24.8364444,32 31.9995556,24.8368889 31.9995556,16 C31.9995556,7.16311111 24.8364444,0 15.9995556,0 L15.9995556,0 Z" id="Path" fill="#B4CFDA"></path>
                    <path d="M13.0717861,17.823355 C11.797274,18.0833896 10.9374001,19.1683272 11.1507995,20.2462959 C11.3640027,21.3244638 12.5702584,21.9874923 13.8447704,21.7272586 C15.1188902,21.467224 15.9791564,20.3826847 15.7655609,19.3043177 C15.5525538,18.226548 14.3459059,17.5633204 13.0717861,17.823355 L13.0717861,17.823355 Z M23.4548033,13.6339311 C23.1411768,12.0790995 21.9337443,10.8535919 20.4018977,10.5350197 C20.0309986,10.4575668 19.6679451,10.700279 19.5918431,11.0771898 C19.5153488,11.4541006 19.7544424,11.8222506 20.1253415,11.9001017 C21.121336,12.1071737 21.9062848,12.9034051 22.1100734,13.9144737 C22.1867638,14.2913845 22.549425,14.5338976 22.9207164,14.4566439 C23.2918116,14.3787928 23.5307091,14.0106427 23.4548033,13.6339311 L23.4548033,13.6339311 Z M26.1825101,13.7362724 C26.180941,10.4386516 23.5473809,7.76563147 20.2983362,7.76563147 C19.9190032,7.76563147 19.6118493,8.07763315 19.6118493,8.46250823 C19.6118493,8.84758241 19.9190032,9.15938498 20.2983362,9.15938498 C22.7898916,9.15938498 24.8095362,11.2097955 24.8095362,13.7388608 C24.8095362,14.123935 25.1170824,14.4357376 25.4960232,14.4357376 C25.8753563,14.4357376 26.1825101,14.123935 26.1825101,13.7388608 L26.1825101,13.7362724 L26.1825101,13.7362724 Z M14.6944451,23.4248504 C11.530721,23.7430244 8.80026813,22.2841627 8.59451818,20.1634672 C8.38916051,18.0437672 10.7877459,16.0662301 13.9510778,15.7470605 C17.1149981,15.4272936 19.8460394,16.88735 20.0510048,19.00705 C20.255774,21.1277455 17.8587577,23.1054817 14.6944451,23.4248504 L14.6944451,23.4248504 Z M21.0218935,16.3951559 C20.7525945,16.312128 20.5680275,16.254785 20.7088554,15.8896216 C21.0138518,15.0961776 21.0458225,14.4118446 20.7149357,13.9236327 C20.0943515,13.0077375 18.3969635,13.0569171 16.4518517,13.8991425 C16.4518517,13.8981469 15.8406822,14.1753048 15.996809,13.6743499 C16.2961173,12.6800063 16.250613,11.8477364 15.785371,11.3668914 C14.7301425,10.2755824 11.9231954,11.4083058 9.5153914,13.8947621 C7.71287279,15.7576132 6.66666667,17.7321637 6.66666667,19.4393127 C6.66666667,22.7044789 10.7189011,24.8888889 14.6836575,24.8888889 C19.880756,24.8888889 23.3384928,21.5697645 23.3384928,19.0926663 C23.3384928,17.5955759 22.1183112,16.7461827 21.0218935,16.3951559 L21.0218935,16.3951559 Z" id="Path" fill="#FFFFFF"></path>
                </g>
                <g id="twitter-2" transform="translate(96.000000, 32.000000)" sketch:type="MSShapeGroup">
                    <path d="M16,0 C7.16355556,0 0,7.16311111 0,16 C0,24.8368889 7.16355556,32 16,32 C24.8364444,32 32,24.8368889 32,16 C32,7.16311111 24.8364444,0 16,0" id="Path" fill="#B4CFDA"></path>
                    <path d="M24.0466667,13.2431111 C24.2808889,18.4626667 20.3888889,24.2822222 13.4986667,24.2822222 C11.4031111,24.2822222 9.45244444,23.6675556 7.81022222,22.6146667 C9.77866667,22.8466667 11.744,22.3008889 13.304,21.0777778 C11.6804444,21.048 10.3097778,19.9751111 9.83777778,18.5008889 C10.4191111,18.612 10.9911111,18.5795556 11.5133333,18.4377778 C9.72844444,18.0786667 8.49688889,16.4711111 8.53688889,14.752 C9.03733333,15.0297778 9.60977778,15.1968889 10.2182222,15.2155556 C8.56533333,14.1115556 8.09733333,11.9293333 9.06977778,10.2613333 C10.8995556,12.5066667 13.6337778,13.984 16.7182222,14.1391111 C16.1773333,11.8173333 17.9382222,9.58222222 20.3333333,9.58222222 C21.4008889,9.58222222 22.3653333,10.0324444 23.0417778,10.7537778 C23.8871111,10.5875556 24.6813333,10.2786667 25.3982222,9.85333333 C25.1213333,10.72 24.5328889,11.4475556 23.7666667,11.9062222 C24.5173333,11.8168889 25.2324444,11.6173333 25.8982222,11.3222222 C25.4008889,12.0666667 24.7715556,12.72 24.0466667,13.2431111" id="Path" fill="#FFFFFF"></path>
                </g>
                <g id="linkedin-2" transform="translate(64.000000, 32.000000)" sketch:type="MSShapeGroup">
                    <path d="M15.9995556,0 C7.16355556,0 0,7.16311111 0,16 C0,24.8368889 7.16355556,32 15.9995556,32 C24.8364444,32 31.9995556,24.8368889 31.9995556,16 C31.9995556,7.16311111 24.8364444,0 15.9995556,0 L15.9995556,0 Z" id="Path" fill="#B4CFDA"></path>
                    <path d="M24.896,23.7351111 L21.4,23.7351111 L21.4,17.7777778 C21.4,16.1435556 20.7791111,15.2315556 19.4871111,15.2315556 C18.0813333,15.2315556 17.3466667,16.1817778 17.3466667,17.7777778 L17.3466667,23.7351111 L13.9773333,23.7351111 L13.9773333,12.3857778 L17.3466667,12.3857778 L17.3466667,13.9142222 C18.36,12.0395556 20.7666667,12.0395556 20.7666667,12.0395556 C23.1733333,12.0395556 24.896,13.5088889 24.896,16.5488889 L24.896,23.7351111 Z M9.95777778,10.8995556 C8.81066667,10.8995556 7.88044444,9.96177778 7.88044444,8.80533333 C7.88044444,7.64888889 8.81066667,6.71111111 9.95777778,6.71111111 C11.1053333,6.71111111 12.0351111,7.64888889 12.0351111,8.80533333 C12.0351111,9.96177778 11.1053333,10.8995556 9.95777778,10.8995556 L9.95777778,10.8995556 Z M11.7311111,23.7351111 L8.21822222,23.7351111 L8.21822222,12.3857778 L11.7311111,12.3857778 L11.7311111,23.7351111 Z" id="Path" fill="#FFFFFF"></path>
                </g>
                <g id="googleplus-2" transform="translate(32.000000, 32.000000)" sketch:type="MSShapeGroup">
                    <path d="M32.1631111,16.0817778 C32.1631111,24.9631111 24.9631111,32.1635556 16.0817778,32.1635556 C7.19955556,32.1635556 0,24.9631111 0,16.0817778 C0,7.2 7.19955556,0 16.0817778,0 C24.9631111,0 32.1631111,7.2 32.1631111,16.0817778 L32.1631111,16.0817778 Z" id="Path" fill="#B4CFDA"></path>
                    <path d="M15.9671111,12.2484444 C15.7262222,10.4164444 14.5324444,8.91333333 13.1382222,8.87111111 C11.7431111,8.83022222 10.8075556,10.232 11.0488889,12.0644444 C11.2897778,13.8964444 12.6155556,15.1755556 14.0106667,15.2182222 C15.4048889,15.2595556 16.2075556,14.0804444 15.9671111,12.2484444 L15.9671111,12.2484444 Z M25.9457778,10.6564444 L23.5577778,10.6564444 L23.5577778,8.26844444 L22.364,8.26844444 L22.364,10.6564444 L19.9764444,10.6564444 L19.9764444,11.8502222 L22.364,11.8502222 L22.364,14.2382222 L23.5577778,14.2382222 L23.5577778,11.8502222 L25.9457778,11.8502222 L25.9457778,10.6564444 Z M19.1955556,21.7257778 C19.1955556,20.2671111 18.6506667,19.3137778 17.0022222,18.0786667 C15.3297778,16.8595556 14.9213333,16.1706667 16.5173333,14.9368889 C17.4168889,14.2413333 18.0466667,13.3142222 18.0466667,12.1702222 C18.0466667,10.924 17.5368889,9.79288889 16.5782222,9.24311111 L17.9373333,9.24311111 L19.0933333,8.02977778 L13.9177778,8.02977778 C10.6866667,8.02977778 9.10222222,9.96577778 9.10222222,12.0964444 C9.10222222,14.2737778 10.5955556,15.9884444 13.5124444,15.9884444 C13.06,16.9013333 13.2413333,17.7444444 13.9813333,18.3475556 C9,18.3475556 7.93422222,20.5333333 7.93422222,22.2168889 C7.93422222,24.3986667 10.4417778,25.6955556 13.4488889,25.6955556 C17.5613333,25.6955556 19.1955556,23.5168889 19.1955556,21.7257778 L19.1955556,21.7257778 Z M17.4048889,21.9102222 C17.4048889,23.4906667 16.1217778,24.7253333 13.464,24.7253333 C11.3853333,24.7253333 9.88444444,23.4097778 9.88444444,21.8293333 C9.88444444,20.2804444 11.6457778,18.944 13.724,18.9671111 C16.0306667,18.9671111 17.4048889,20.4035556 17.4048889,21.9102222 L17.4048889,21.9102222 Z" id="Path" fill="#FFFFFF"></path>
                </g>
                <g id="facebook-2" transform="translate(0.000000, 32.000000)" sketch:type="MSShapeGroup">
                    <path d="M16,0 C7.16311111,0 0,7.16311111 0,16 C0,24.8368889 7.16311111,32 16,32 C24.8364444,32 32,24.8368889 32,16 C32,7.16311111 24.8364444,0 16,0 L16,0 Z" id="Path" fill="#B4CFDA"></path>
                    <path d="M20.7355556,9.41288889 L18.4995556,9.41288889 C17.7097778,9.41288889 17.5453333,9.73644444 17.5453333,10.5528889 L17.5453333,12.5262222 L20.7355556,12.5262222 L20.4284444,15.9902222 L17.5453333,15.9902222 L17.5453333,26.3377778 L13.4133333,26.3377778 L13.4133333,16.0337778 L11.2644444,16.0337778 L11.2644444,12.5262222 L13.4133333,12.5262222 L13.4133333,9.764 C13.4133333,7.17155556 14.8,5.81777778 17.8746667,5.81777778 L20.7355556,5.81777778 L20.7355556,9.41288889 Z" id="Path" fill="#FFFFFF"></path>
                </g>
            </g>
        </g>
    </g>
</svg>